<svg width="64" height="31" viewBox="0 0 64 31" fill="none" xmlns="http://www.w3.org/2000/svg">
<g id="logo-sieko">
<path id="Vector" d="M0.667969 20.6106H4.24752C4.38108 21.8127 5.42289 22.6408 7.26609 22.6408C8.84216 22.6408 9.80383 22.1333 9.80383 21.1716C9.80383 20.0496 8.86887 19.9695 6.65169 19.6757C3.44613 19.3017 0.961812 18.5804 0.961812 15.7488C0.961812 13.0241 3.33927 11.2343 6.8654 11.261C10.5518 11.261 13.0895 12.8905 13.2765 15.6954H9.67026C9.56341 14.6002 8.5216 13.9324 6.99896 13.9324C5.52974 13.9324 4.56807 14.4666 4.56807 15.3481C4.56807 16.39 5.74345 16.4968 7.72021 16.7372C10.8724 17.0578 13.4902 17.779 13.4902 20.8777C13.4902 23.6025 10.9258 25.3388 7.23938 25.3388C3.41941 25.3388 0.828247 23.549 0.667969 20.6106ZM16.0353 9.97882C14.8065 9.97882 13.8448 9.07058 13.8448 7.86849C13.8448 6.63969 14.8065 5.73145 16.0353 5.73145C17.2641 5.73145 18.2257 6.63969 18.2257 7.86849C18.2257 9.07058 17.2641 9.97882 16.0353 9.97882ZM14.1386 25.1785V11.448H17.9319V25.1785H14.1386ZM25.9794 25.3388C21.4115 25.3388 18.66 22.5874 18.66 18.34C18.66 14.0659 21.4649 11.2878 25.7123 11.2878C29.8261 11.2878 32.6042 13.8522 32.6577 17.8859C32.6577 18.2866 32.631 18.7407 32.5508 19.1681H22.5869V19.3551C22.667 21.3052 23.9225 22.4805 25.8191 22.4805C27.3418 22.4805 28.4103 21.8127 28.7309 20.5305H32.444C32.0166 23.2018 29.6391 25.3388 25.9794 25.3388ZM22.667 16.7105H28.8644C28.5973 15.0276 27.4486 14.0926 25.739 14.0926C24.1095 14.0926 22.8807 15.081 22.667 16.7105ZM33.3804 25.1785V6.47941H37.1469V17.2715L42.5162 11.448H46.7636L41.8217 16.8441L47.0307 25.1785H42.6765L39.2038 19.6222L37.1469 21.8394V25.1785H33.3804Z" fill="#F4F3F3"/>
<path id="Vector_2" d="M63.9561 16.3599C63.9561 12.8976 64.0001 9.28618 64.0001 5.82389C64.0001 4.78024 63.0212 3.93537 61.8113 3.93537C60.1468 3.93537 59.4339 5.13252 59.5168 6.73737L58.5345 3.70888C58.2941 3.00353 57.2668 2.13638 55.8493 2.41466C54.6879 2.688 53.9749 3.72079 54.2821 4.73132L55.0096 7.24859L52.2873 3.47592C51.6825 2.57307 50.184 2.27192 49.0025 2.86117C47.9562 3.383 47.5926 4.76368 48.2226 5.6761L51.7998 10.7301C49.0925 11.5066 47.0903 13.1499 46.3102 15.0657C45.8086 16.2977 47.033 17.7721 48.5215 17.7721C50.3773 17.7721 50.7014 16.2474 51.8223 15.4151C52.4846 14.9181 53.4068 14.6267 54.3571 14.6515C56.2194 14.7095 57.8255 15.9955 57.9118 17.6107C58.008 19.3999 56.3268 21.0061 54.2821 21.0061C52.8422 21.0061 51.1811 20.0983 50.6748 18.9419C50.3508 18.2019 49.3353 17.7706 48.4175 17.7706C46.9488 17.7706 45.8527 19.0778 46.2878 20.372C47.4589 23.3953 50.81 25.3501 54.7169 25.3418C59.5068 25.317 63.9561 21.6274 63.9561 16.3599Z" fill="#3A3939"/>
<path id="Vector_3" d="M55.4971 2.52588C54.5489 2.90612 54.0077 3.82761 54.2824 4.73129L54.9576 7.06766L56.5471 9.31935L55.2574 4.41419C55.1207 3.93881 55.0161 2.99692 55.4971 2.52588Z" fill="#F4F3F3"/>
<path id="Vector_4" d="M48.6106 3.12158C47.8749 3.75368 47.679 4.8892 48.2224 5.67628L51.795 10.7237C52.6955 10.4972 53.6698 10.4972 54.7619 10.4972C53.757 10.3032 52.6178 10.049 51.943 9.31952C51.2683 8.59009 48.9424 5.11328 48.9424 5.11328C48.5945 4.66127 48.1489 3.74563 48.6106 3.12158Z" fill="#F4F3F3"/>
<path id="Vector_5" d="M59.5111 6.58297C59.4872 5.35595 59.9469 4.391 60.9653 4.05957C60.578 4.47079 60.47 5.16747 60.4767 5.59213L60.2964 9.3195L59.5111 6.58297Z" fill="#F4F3F3"/>
</g>
</svg>
