<svg width="96" height="47" viewBox="0 0 96 47" fill="none" xmlns="http://www.w3.org/2000/svg">
<g id="logo-sieko">
<path id="Vector" d="M1.00195 30.8295H6.37127C6.57162 32.6326 8.13434 33.8748 10.8991 33.8748C13.2632 33.8748 14.7057 33.1135 14.7057 31.671C14.7057 29.988 13.3033 29.8678 9.97754 29.4271C5.16919 28.8661 1.44272 27.7842 1.44272 23.5368C1.44272 19.4497 5.00891 16.7651 10.2981 16.8051C15.8277 16.8051 19.6343 19.2494 19.9148 23.4567H14.5054C14.3451 21.8138 12.7824 20.8121 10.4984 20.8121C8.29461 20.8121 6.85211 21.6135 6.85211 22.9358C6.85211 24.4985 8.61517 24.6588 11.5803 25.0194C16.3085 25.5002 20.2353 26.5821 20.2353 31.2302C20.2353 35.3173 16.3887 37.9218 10.8591 37.9218C5.12912 37.9218 1.24237 35.2371 1.00195 30.8295ZM24.0529 14.8818C22.2097 14.8818 20.7672 13.5194 20.7672 11.7163C20.7672 9.87311 22.2097 8.51074 24.0529 8.51074C25.8961 8.51074 27.3386 9.87311 27.3386 11.7163C27.3386 13.5194 25.8961 14.8818 24.0529 14.8818ZM21.2079 37.6814V17.0856H26.8978V37.6814H21.2079ZM38.9691 37.9218C32.1172 37.9218 27.9901 33.7946 27.9901 27.4236C27.9901 21.0124 32.1974 16.8452 38.5684 16.8452C44.7391 16.8452 48.9064 20.6919 48.9865 26.7424C48.9865 27.3434 48.9464 28.0246 48.8262 28.6657H33.8803V28.9462C34.0005 31.8713 35.8838 33.6344 38.7287 33.6344C41.0127 33.6344 42.6154 32.6326 43.0963 30.7093H48.666C48.0248 34.7162 44.4586 37.9218 38.9691 37.9218ZM34.0005 24.9793H43.2966C42.8959 22.455 41.1729 21.0525 38.6085 21.0525C36.1642 21.0525 34.321 22.5351 34.0005 24.9793ZM50.0706 37.6814V9.63269H55.7204V25.8208L63.7744 17.0856H70.1454L62.7325 25.1797L70.5461 37.6814H64.0148L58.8057 29.3469L55.7204 32.6727V37.6814H50.0706Z" fill="#F4F3F3"/>
<path id="Vector_2" d="M95.9342 24.4534C95.9342 19.2599 96.0002 13.8428 96.0002 8.64942C96.0002 7.08393 94.5318 5.81662 92.717 5.81662C90.2201 5.81662 89.1508 7.61236 89.2752 10.0196L87.8018 5.4769C87.4411 4.41886 85.9001 3.11814 83.7739 3.53557C82.0319 3.94557 80.9624 5.49476 81.4232 7.01056L82.5143 10.7865L78.4309 5.12746C77.5238 3.77318 75.2759 3.32146 73.5038 4.20532C71.9343 4.98807 71.3889 7.05909 72.3339 8.42773L77.6997 16.0087C73.6388 17.1735 70.6355 19.6385 69.4654 22.5121C68.7129 24.3601 70.5495 26.5717 72.7822 26.5717C75.5659 26.5717 76.052 24.2846 77.7335 23.0362C78.7269 22.2908 80.1102 21.8536 81.5357 21.8908C84.3291 21.9778 86.7383 23.9068 86.8676 26.3296C87.0121 29.0134 84.4902 31.4228 81.4232 31.4228C79.2633 31.4228 76.7716 30.061 76.0122 28.3264C75.5262 27.2164 74.003 26.5695 72.6263 26.5695C70.4232 26.5695 68.779 28.5303 69.4316 30.4716C71.1883 35.0066 76.2151 37.9388 82.0754 37.9263C89.2601 37.889 95.9342 32.3547 95.9342 24.4534Z" fill="#3A3939"/>
<path id="Vector_3" d="M83.2456 3.70215C81.8233 4.27251 81.0116 5.65474 81.4235 7.01027L82.4364 10.5148L84.8206 13.8924L82.8861 6.53462C82.6811 5.82154 82.5242 4.40872 83.2456 3.70215Z" fill="#F4F3F3"/>
<path id="Vector_4" d="M72.9164 4.5957C71.8128 5.54385 71.519 7.24713 72.3341 8.42776L77.693 15.9989C79.0437 15.6592 80.5051 15.6592 82.1433 15.6592C80.636 15.3681 78.9272 14.9868 77.9151 13.8926C76.903 12.7985 73.4141 7.58325 73.4141 7.58325C72.8923 6.90524 72.2238 5.53177 72.9164 4.5957Z" fill="#F4F3F3"/>
<path id="Vector_5" d="M89.2665 9.78754C89.2306 7.94702 89.9201 6.49959 91.4478 6.00244C90.8667 6.61927 90.7048 7.66428 90.7148 8.30128L90.4443 13.8923L89.2665 9.78754Z" fill="#F4F3F3"/>
</g>
</svg>
