<svg width="17" height="17" viewBox="0 0 17 17" fill="none" xmlns="http://www.w3.org/2000/svg">
<path d="M15.5017 8.65546C15.5017 8.07991 15.454 7.65991 15.3509 7.22437H8.64453V9.82211H12.581C12.5017 10.4677 12.0731 11.4399 11.1207 12.0932L11.1074 12.1802L13.2278 13.79L13.3747 13.8044C14.7239 12.5832 15.5017 10.7866 15.5017 8.65546" fill="#4285F4"/>
<path d="M8.64266 15.5C10.5712 15.5 12.1902 14.8778 13.3728 13.8044L11.1188 12.0933C10.5157 12.5055 9.70613 12.7933 8.64266 12.7933C6.75379 12.7933 5.15064 11.5722 4.57916 9.8844L4.49539 9.89137L2.29055 11.5636L2.26172 11.6422C3.43631 13.9288 5.849 15.5 8.64266 15.5Z" fill="#34A853"/>
<path d="M4.57933 9.88442C4.42854 9.44887 4.34127 8.98217 4.34127 8.49997C4.34127 8.01772 4.42854 7.55107 4.5714 7.11552L4.5674 7.02276L2.33493 5.32367L2.26189 5.35772C1.77778 6.30662 1.5 7.37219 1.5 8.49997C1.5 9.62774 1.77778 10.6933 2.26189 11.6422L4.57933 9.88442" fill="#FBBC05"/>
<path d="M8.6427 4.20665C9.98395 4.20665 10.8887 4.77442 11.4046 5.2489L13.4205 3.32C12.1824 2.19223 10.5712 1.5 8.6427 1.5C5.84902 1.5 3.43631 3.0711 2.26172 5.35775L4.57124 7.11555C5.15065 5.42777 6.75382 4.20665 8.6427 4.20665" fill="#EB4335"/>
</svg>
