<svg width="56" height="28" viewBox="0 0 56 28" fill="none" xmlns="http://www.w3.org/2000/svg">
<g id="logo-sieko 1" clip-path="url(#clip0_271_526)">
<path id="Vector" d="M0.584473 18.5247H3.71658C3.83344 19.5766 4.74503 20.3012 6.35783 20.3012C7.73689 20.3012 8.57835 19.8571 8.57835 19.0156C8.57835 18.0339 7.76026 17.9638 5.82023 17.7067C3.01535 17.3795 0.841585 16.7483 0.841585 14.2707C0.841585 11.8866 2.92186 10.3205 6.00722 10.3439C9.23282 10.3439 11.4533 11.7697 11.6169 14.2239H8.46148C8.36798 13.2656 7.4564 12.6813 6.12409 12.6813C4.83852 12.6813 3.99706 13.1487 3.99706 13.9201C3.99706 14.8317 5.02552 14.9252 6.75518 15.1355C9.51335 15.416 11.8039 16.0471 11.8039 18.7585C11.8039 21.1427 9.56007 22.6619 6.33446 22.6619C2.99198 22.6619 0.724716 21.0959 0.584473 18.5247ZM14.0309 9.22192C12.9557 9.22192 12.1142 8.42723 12.1142 7.37541C12.1142 6.30021 12.9557 5.50549 14.0309 5.50549C15.1061 5.50549 15.9475 6.30021 15.9475 7.37541C15.9475 8.42723 15.1061 9.22192 14.0309 9.22192ZM12.3713 22.5217V10.5075H15.6904V22.5217H12.3713ZM22.732 22.6619C18.7351 22.6619 16.3275 20.2544 16.3275 16.538C16.3275 12.7981 18.7818 10.3673 22.4983 10.3673C26.0978 10.3673 28.5287 12.6112 28.5755 16.1406C28.5755 16.4912 28.5521 16.8886 28.482 17.2626H19.7635V17.4262C19.8336 19.1325 20.9322 20.1609 22.5917 20.1609C23.9241 20.1609 24.859 19.5766 25.1395 18.4547H28.3885C28.0145 20.792 25.9342 22.6619 22.732 22.6619ZM19.8336 15.1122H25.2564C25.0226 13.6396 24.0175 12.8215 22.5216 12.8215C21.0958 12.8215 20.0206 13.6863 19.8336 15.1122ZM29.2079 22.5217V6.15997H32.5035V15.603L37.2017 10.5075H40.9181L36.594 15.2291L41.1519 22.5217H37.3419L34.3033 17.6599L32.5035 19.5999V22.5217H29.2079Z" fill="#F4F3F3"/>
<path id="Vector_2" d="M55.9616 14.8052C55.9616 11.7757 56.0001 8.61577 56.0001 5.58626C56.0001 4.67306 55.1435 3.9338 54.0848 3.9338C52.6284 3.9338 52.0046 4.98131 52.0772 6.38555L51.2177 3.73563C51.0073 3.11844 50.1084 2.35968 48.8681 2.60319C47.8519 2.84235 47.228 3.74605 47.4968 4.63027L48.1334 6.83287L45.7514 3.53179C45.2222 2.7418 43.911 2.47829 42.8771 2.99388C41.9616 3.45048 41.6435 4.65857 42.1947 5.45695L45.3248 9.87917C42.9559 10.5586 41.204 11.9966 40.5214 13.6728C40.0825 14.7508 41.1538 16.0409 42.4563 16.0409C44.0801 16.0409 44.3637 14.7068 45.3445 13.9785C45.924 13.5438 46.7309 13.2887 47.5624 13.3104C49.1919 13.3611 50.5973 14.4864 50.6728 15.8997C50.757 17.4652 49.2859 18.8708 47.4968 18.8708C46.2369 18.8708 44.7834 18.0763 44.3404 17.0645C44.0569 16.417 43.1683 16.0397 42.3653 16.0397C41.0802 16.0397 40.1211 17.1834 40.5018 18.3159C41.5265 20.9613 44.4587 22.6718 47.8772 22.6645C52.0684 22.6427 55.9616 19.4143 55.9616 14.8052Z" fill="#00845F"/>
<path id="Vector_3" d="M48.56 2.70056C47.7303 3.03327 47.2567 3.83958 47.4971 4.6303L48.0879 6.67463L49.4787 8.64486L48.3502 4.35284C48.2306 3.93688 48.1391 3.11273 48.56 2.70056Z" fill="#F4F3F3"/>
<path id="Vector_4" d="M42.5345 3.22156C41.8908 3.77465 41.7194 4.76823 42.1948 5.45693L45.3209 9.87347C46.1088 9.67528 46.9613 9.67528 47.9169 9.67528C47.0376 9.50544 46.0408 9.28301 45.4504 8.64476C44.86 8.0065 42.8248 4.9643 42.8248 4.9643C42.5204 4.56879 42.1305 3.7676 42.5345 3.22156Z" fill="#F4F3F3"/>
<path id="Vector_5" d="M52.0721 6.25033C52.0512 5.1767 52.4534 4.33236 53.3445 4.04236C53.0056 4.40218 52.9111 5.01177 52.917 5.38335L52.7592 8.6448L52.0721 6.25033Z" fill="#F4F3F3"/>
</g>
<defs>
<clipPath id="clip0_271_526">
<rect width="56" height="28" fill="white"/>
</clipPath>
</defs>
</svg>
