<svg width="101" height="48" viewBox="0 0 101 48" fill="none" xmlns="http://www.w3.org/2000/svg">
<g id="logo-sieko" clip-path="url(#clip0_254_767)">
<path id="Vector" d="M1.04736 32.1094H6.66075C6.8702 33.9945 8.50395 35.2931 11.3944 35.2931C13.866 35.2931 15.3741 34.4971 15.3741 32.9891C15.3741 31.2296 13.9079 31.104 10.4309 30.6432C5.40402 30.0567 1.50816 28.9257 1.50816 24.4852C1.50816 20.2123 5.23646 17.4057 10.7661 17.4475C16.547 17.4475 20.5266 20.0029 20.8199 24.4014H15.1646C14.997 22.6839 13.3633 21.6366 10.9755 21.6366C8.67151 21.6366 7.16344 22.4745 7.16344 23.8569C7.16344 25.4906 9.00664 25.6582 12.1066 26.0352C17.0497 26.5379 21.155 27.6689 21.155 32.5283C21.155 36.8011 17.1335 39.524 11.3525 39.524C5.36213 39.524 1.29871 36.7174 1.04736 32.1094ZM25.1461 15.4368C23.2191 15.4368 21.711 14.0125 21.711 12.1274C21.711 10.2004 23.2191 8.77612 25.1461 8.77612C27.0731 8.77612 28.5811 10.2004 28.5811 12.1274C28.5811 14.0125 27.0731 15.4368 25.1461 15.4368ZM22.1718 39.2727V17.7408H28.1203V39.2727H22.1718ZM40.7403 39.524C33.577 39.524 29.2622 35.2093 29.2622 28.5486C29.2622 21.8461 33.6607 17.4894 40.3214 17.4894C46.7726 17.4894 51.1293 21.511 51.213 27.8365C51.213 28.4649 51.1711 29.177 51.0455 29.8473H35.4202V30.1405C35.5458 33.1985 37.5147 35.0417 40.489 35.0417C42.8767 35.0417 44.5524 33.9944 45.0551 31.9837H50.8779C50.2077 36.1728 46.4794 39.524 40.7403 39.524ZM35.5458 25.9933H45.2645C44.8456 23.3542 43.0443 21.888 40.3633 21.888C37.8079 21.888 35.881 23.4379 35.5458 25.9933ZM52.3464 39.2727V9.94907H58.253V26.873L66.6731 17.7408H73.3337L65.5839 26.2027L73.7526 39.2727H66.9244L61.4786 30.5594L58.253 34.0363V39.2727H52.3464Z" fill="#F4F3F3"/>
<path id="Vector_2" d="M100.295 25.4433C100.295 20.0137 100.364 14.3504 100.364 8.9209C100.364 7.28426 98.8287 5.95934 96.9314 5.95934C94.3211 5.95934 93.2031 7.8367 93.3331 10.3534L91.7928 5.60418C91.4157 4.49805 89.8047 3.1382 87.5818 3.57461C85.7606 4.00325 84.6425 5.62285 85.1243 7.20755L86.265 11.1551L81.996 5.23885C81.0476 3.82302 78.6976 3.35076 76.8449 4.27481C75.204 5.09313 74.6339 7.25828 75.6218 8.68914L81.2315 16.6147C76.986 17.8324 73.8462 20.4095 72.6229 23.4137C71.8362 25.3457 73.7563 27.6578 76.0905 27.6578C79.0008 27.6578 79.5089 25.2668 81.2668 23.9617C82.3054 23.1823 83.7516 22.7253 85.2419 22.7642C88.1622 22.8551 90.6809 24.8718 90.8162 27.4047C90.9672 30.2105 88.3307 32.7294 85.1243 32.7294C82.8662 32.7294 80.2612 31.3057 79.4673 29.4923C78.9592 28.3318 77.3667 27.6556 75.9274 27.6556C73.6242 27.6556 71.9053 29.7054 72.5876 31.735C74.4242 36.4761 79.6794 39.5416 85.8061 39.5286C93.3174 39.4896 100.295 33.7037 100.295 25.4433Z" fill="#00845F"/>
<path id="Vector_3" d="M87.0296 3.74902C85.5427 4.34531 84.694 5.79037 85.1247 7.20751L86.1836 10.8714L88.6762 14.4024L86.6537 6.71024C86.4394 5.96476 86.2754 4.48771 87.0296 3.74902Z" fill="#F4F3F3"/>
<path id="Vector_4" d="M76.2306 4.68286C75.0769 5.6741 74.7697 7.45481 75.6219 8.6891L81.2244 16.6044C82.6364 16.2492 84.1643 16.2492 85.8769 16.2492C84.3011 15.9449 82.5146 15.5462 81.4565 14.4024C80.3984 13.2585 76.7509 7.8062 76.7509 7.8062C76.2054 7.09737 75.5065 5.66148 76.2306 4.68286Z" fill="#F4F3F3"/>
<path id="Vector_5" d="M93.3241 10.111C93.2866 8.18677 94.0075 6.67355 95.6046 6.15381C94.9972 6.79868 94.8279 7.89119 94.8383 8.55714L94.5556 14.4023L93.3241 10.111Z" fill="#F4F3F3"/>
</g>
<defs>
<clipPath id="clip0_254_767">
<rect width="100.364" height="48" fill="white"/>
</clipPath>
</defs>
</svg>
